<svg width="480" height="350" viewBox="-5 -5 480 350" xmlns="http://www.w3.org/2000/svg">
    <defs>
        <clipPath id="a">
            <path d="M0 500h500V0H0z"/>
        </clipPath>
    </defs>
    <g fill="#3498db" clip-path="url(#a)" transform="matrix(1.25 0 0 -1.25 -82.121 526.68)">
        <path fill="#2ee671"
              d="M323.15 158.18a8.8 8.8 0 0 0-8.801-8.8h-128.7c-4.86 0-8.8 3.94-8.801 8.8v17.6a8.8 8.8 0 0 0 8.801 8.8h128.7a8.8 8.8 0 0 0 8.801-8.8zM87.52 191.718c3.547 0 3.547 5.5 0 5.5s-3.547-5.5 0-5.5m341.69 33.688c3.547 0 3.547 5.5 0 5.5s-3.547-5.5 0-5.5m-297.14 175.86c3.547 0 3.547 5.5 0 5.5s-3.547-5.5 0-5.5m-61.051-202.68c7.094 0 7.094 11 0 11s-7.094-11 0-11m357.5 4.812c7.094 0 7.094 11 0 11s-7.094-11 0-11m-312.95 189.61c7.094 0 7.094 11 0 11s-7.094-11 0-11m278.57-9.489c3.547 0 3.547 5.5 0 5.5s-3.547-5.5 0-5.5m1.375-15.125c5.32 0 5.32 8.25 0 8.25s-5.32-8.25 0-8.25m-324.36-55c5.32 0 5.32 8.25 0 8.25s-5.32-8.25 0-8.25m368.09-44.137c5.32 0 5.32 8.25 0 8.25s-5.32-8.25 0-8.25m-187.41 135.57c10.641 0 10.641 16.5 0 16.5-10.64 0-10.64-16.5 0-16.5m126.5-28.462c9.222 0 9.222 14.3 0 14.3s-9.222-14.3 0-14.3m-305.25-85.938c9.222 0 9.222 14.3 0 14.3s-9.222-14.3 0-14.3m360.25-8.25c9.222 0 9.222 14.3 0 14.3s-9.222-14.3 0-14.3m-197.31 113.71c7.094 0 7.094 11 0 11s-7.094-11 0-11m186.31-131.17c7.094 0 7.094 11 0 11s-7.094-11 0-11M91.644 308.58c7.094 0 7.094 11 0 11s-7.094-11 0-11m162.94 84.562c3.547 0 3.547 5.5 0 5.5s-3.547-5.5 0-5.5m-139.22-41.056c1.516-12.515 9.577-30.192 2.77-41.876-4.933-8.75-13.975-13.877-22.709-17.28-22.814-9.274-31.308-26.681-25.53-51.525 15.453-66.945 99.58-51.07 143.74-31.22 31.407 14.773 68.45 17.31 100.97 4.814 25.478-10.175 41.361-31.52 71.265-25.267 26.521 5.322 30.523 30.36 22.78 53.668-4.4 14.42-7.56 20.513 1.167 34.432 7.353 13.824 20.297 24.299 21.293 40.494.217 17.54-7.843 35.217-23.442 41.86-12.762 5.436-24.33 3.242-36.956 6.584-28.083 7.892-46.13 51.525-80.968 36.519-8.686-4.1-13.574-13.55-22.01-16.23-38.11-12.425-162.08 49.193-152.38-34.973z"/>
    </g>
    <path fill="#303761"
          d="M403.45 128.72c-1.796 2.849-4.636 4.669-7.705 5.928-2.426.995-1.366 4.986 1.096 3.977 4.11-1.685 7.758-3.996 10.171-7.822 1.423-2.258-2.147-4.325-3.562-2.083m-5.021-4.32c-1.25 3.606-3.41 6.32-6.345 8.715-2.063 1.683.875 4.582 2.917 2.916 3.496-2.852 5.925-6.267 7.405-10.535.874-2.52-3.112-3.594-3.977-1.096m-6.95-.826v10.312c0 2.66 4.127 2.66 4.127 0v-10.312c0-2.66-4.126-2.66-4.126 0m-6.113 5.36c1.762 4.203 4.8 7.241 9.003 9.004 1.04.435 2.27-.463 2.537-1.441.327-1.19-.404-2.103-1.44-2.538-2.712-1.136-4.985-3.41-6.123-6.121-.435-1.036-1.347-1.769-2.537-1.441-.98.27-1.877 1.499-1.44 2.537m-49.058 55.14c.185-6.74 2.437-8.987 8.942-9.517 4.226-.345 8.514-.287 12.694-1.065 6.379-1.189 6.26-9.989 8.729-14.529 3.77-6.937 13.898-6.2 20.434-8.249 7.2-2.257 9.964-8.354 10.389-15.454.199-3.322-4.959-3.304-5.156 0-.633 10.562-8.379 10.93-16.888 12.681-7.5 1.543-12.58 5.654-15.186 12.881-.816 2.261-1.015 6.978-3.693 7.696-4.36 1.17-9.379.635-13.865 1.122-8.43.913-11.335 6.432-11.556 14.432-.091 3.327 5.065 3.317 5.156 0M53.15 120.218c3.838 3.628 8.622 4.83 13.694 3.28 2.537-.774 1.454-4.757-1.096-3.978-3.662 1.12-6.879.43-9.68-2.219-1.93-1.826-4.853 1.086-2.917 2.916m3.438-6.187c2.76 3.45 5.562 6.893 9.354 9.26 2.264 1.413 4.332-2.157 2.082-3.562-3.461-2.161-6.002-5.468-8.52-8.614-1.662-2.077-4.56.861-2.916 2.916m6.958-4.208c.011 4.362.647 8.7.687 13.062.024 2.66 4.15 2.662 4.125 0-.04-4.363-.676-8.7-.687-13.062-.008-2.66-4.133-2.66-4.125 0m7.385 5.49c-1.544 2.022-3.431 3.284-5.678 4.416-2.376 1.197-.286 4.755 2.083 3.562 2.92-1.471 5.169-3.292 7.157-5.896.684-.896.14-2.306-.74-2.823-1.06-.62-2.14-.15-2.822.74m54.491 55.962c-4.631 1.637-7.689 1.95-10.061-2.735-1.828-3.607-3.046-7.33-5.346-10.708-4.985-7.318-9.813-7.808-17.795-6.766-7.923 1.034-18.73-.99-19.932-10.15-.856-6.53-.906-12.535-3.766-18.643-1.408-3.009-5.853-.39-4.452 2.603 3.172 6.778 1.785 14.158 4.107 21.06 2.353 7.006 10.196 9.264 16.788 10.052 4.98.593 9.342-.608 14.226-.603 5.245.006 8.826 9.004 10.489 12.952 3.465 8.235 8.373 10.998 17.115 7.91 3.112-1.1 1.772-6.082-1.372-4.972"/>
    <path fill="#8b939c"
          d="M360.89 258.78c0 3.607-27.005 4.655-29.924 4.655h-202.1c-2.915 0-29.925-1.048-29.925-4.655l24.644-36.94c0-3.608 2.366-6.531 5.281-6.531h202.1c2.919 0 5.281 2.924 5.281 6.531z"/>
    <path fill="#363640"
          d="M338.89 216.86a5.283 5.283 0 0 1-5.282 5.282h-207.37a5.284 5.284 0 0 1-5.283-5.282V81.57a5.282 5.282 0 0 1 5.282-5.281h207.37a5.281 5.281 0 0 1 5.283 5.281zm23.386 50.481c0 2.916-.604 5.28-3.518 5.28h-257.67c-2.918 0-3.52-2.364-3.52-5.28v-4.527c0-2.917.602-5.28 3.52-5.28h257.67c2.914 0 3.518 2.363 3.518 5.28zm-95.363-16.784h-73.985l4.125-22h65.735zm-136.26 0h-18.291l14.968-22h13.795zm198.54 0h18.29l-14.966-22h-13.798zm-57.712 0h51.94l-9.091-22h-46.975zm-83.122 0h-51.94l9.089-22h46.978z"/>
    <path fill="#8b939c"
          d="M278.21 265.2a2.75 2.75 0 0 1-2.749 2.75h-91.094a2.75 2.75 0 1 1 0-5.5h91.094a2.75 2.75 0 0 1 2.749 2.75m64.76-29.26h-226.1v-3.367h226.1v3.367zm2.451 8.25h-231v-3.367h231z"/>
    <path fill="#fff"
          d="M323.63 208.36a4.543 4.543 0 0 1-4.54 4.543H140.74a4.544 4.544 0 0 1-4.543-4.543V92.01a4.544 4.544 0 0 1 4.543-4.542h178.35a4.543 4.543 0 0 1 4.54 4.542zM229.917 83.64c2.839 0 2.839-4.401 0-4.401s-2.839 4.401 0 4.401"/>
    <path fill="#c41e3d" fill-opacity=".531" d="M265.78 168.95v15.354a5.5 5.5 0 0 1-5.5 5.501h-2.966a5.501 5.501 0 0 1-5.501-5.501V168.95"/>
    <path fill="#c41e3d" fill-opacity=".251" d="m261.2 169.76-2.413 17.875-2.41-17.875z"/>
    <path fill="none" stroke="#42075f" stroke-linecap="round" stroke-linejoin="round" stroke-miterlimit="10" stroke-width="3.438"
          d="M183.3 168.94h93.234m-3.777-18.754-15.555-15.556m15.555-.002L257.2 150.183m-54.566.003-15.556-15.556m15.556-.002-15.558 15.556"/>
    <path fill="#f7c3d2"
          d="M291.79 166.66c8.867 0 8.867-13.75 0-13.75s-8.867 13.75 0 13.75m-123.75 0c8.868 0 8.868-13.75 0-13.75s-8.867 13.75 0 13.75"/>
    <path fill="#9932cc"
          d="M306.92 121.17c6.65 0 6.65-10.312 0-10.312s-6.65 10.312 0 10.312m-3.437-62.907v45.375c0 4.434 6.875 4.434 6.875 0V58.263c0-4.434-6.875-4.434-6.875 0"/>
    <path fill="#19191c"
          d="M236.38 320.29v8.98h-2.51v-21.594h5.923c2.648 0 4.603.507 5.864 1.521 1.27 1.014 1.905 2.54 1.905 4.579 0 2.855-1.448 4.785-4.342 5.79l5.863 9.704h-2.968l-5.23-8.98zm0-2.157h3.442c1.772 0 3.072-.35 3.9-1.048.826-.71 1.24-1.768 1.24-3.176 0-1.428-.424-2.457-1.27-3.087-.837-.63-2.186-.945-4.047-.945h-3.264zm-7.34.31c0 3.457-.877 6.175-2.63 8.154-1.743 1.98-4.17 2.969-7.281 2.969-3.181 0-5.638-.97-7.37-2.91-1.724-1.95-2.585-4.697-2.585-8.242 0-3.515.866-6.238 2.6-8.168 1.732-1.94 4.194-2.91 7.384-2.91 3.102 0 5.524.985 7.267 2.954 1.743 1.97 2.615 4.687 2.615 8.153zm-17.208 0c0 2.925.62 5.145 1.86 6.662 1.251 1.507 3.063 2.26 5.437 2.26 2.393 0 4.2-.753 5.42-2.26 1.22-1.507 1.832-3.727 1.832-6.662 0-2.905-.61-5.105-1.831-6.602-1.212-1.507-3.01-2.26-5.392-2.26-2.393 0-4.215.758-5.465 2.275-1.24 1.507-1.86 3.702-1.86 6.587zm-17.754 1.847v8.98h-2.51v-21.594h5.922c2.648 0 4.603.507 5.864 1.521 1.27 1.014 1.905 2.54 1.905 4.579 0 2.855-1.448 4.785-4.342 5.79l5.864 9.704h-2.97l-5.228-8.98zm0-2.157h3.442c1.772 0 3.071-.35 3.899-1.048.826-.71 1.24-1.768 1.24-3.176 0-1.428-.424-2.457-1.27-3.087-.837-.63-2.186-.945-4.047-.945h-3.264zm-18.73 2.157v8.98h-2.51v-21.594h5.923c2.648 0 4.603.507 5.864 1.521 1.27 1.014 1.905 2.54 1.905 4.579 0 2.855-1.448 4.785-4.342 5.79l5.864 9.704h-2.97l-5.228-8.98zm0-2.157h3.443c1.772 0 3.071-.35 3.899-1.048.826-.71 1.24-1.768 1.24-3.176 0-1.428-.424-2.457-1.27-3.087-.837-.63-2.186-.945-4.047-.945h-3.264zm-7.31 11.137H156v-21.594h12.038v2.23h-9.527v6.957h8.95v2.216h-8.95v7.946h9.527zm143.11-4.475h-2.6v4.475h-4.46v-4.475h-9.217v-3.176l9.468-13.943h4.21v13.574h2.599zm-7.06-3.545v-3.663c0-.61.024-1.497.074-2.659.048-1.162.088-1.836.118-2.023h-.118a16.586 16.586 0 0 1-1.315 2.363l-3.96 5.982zm-10.798-2.777c0 3.771-.62 6.563-1.86 8.375-1.232 1.812-3.132 2.718-5.702 2.718-2.492 0-4.372-.936-5.642-2.807-1.261-1.87-1.891-4.633-1.891-8.286 0-3.81.615-6.617 1.846-8.42 1.23-1.811 3.127-2.717 5.687-2.717 2.49 0 4.372.945 5.642 2.836 1.28 1.89 1.92 4.658 1.92 8.301zm-10.56 0c0 2.649.226 4.549.679 5.701.462 1.143 1.235 1.714 2.319 1.714 1.063 0 1.83-.581 2.304-1.743.473-1.162.71-3.053.71-5.672 0-2.649-.242-4.549-.725-5.701-.473-1.162-1.236-1.743-2.29-1.743-1.073 0-1.84.581-2.303 1.743-.463 1.152-.694 3.052-.694 5.701zm-6.086 6.322h-2.6v4.475h-4.46v-4.475h-9.217v-3.176l9.468-13.943h4.21v13.574h2.6v3.545zm-7.06-3.545v-3.663c0-.61.024-1.497.074-2.659s.088-1.836.118-2.023h-.118a16.586 16.586 0 0 1-1.315 2.363l-3.958 5.982z"/>
</svg>
